<svg xmlns="http://www.w3.org/2000/svg" fill="none" viewBox="0 0 260 260">
    <path clip-rule="evenodd" d="m33.0078 0c-18.2297 0-33.0078 14.7781-33.0078 33.0078v193.9842c0 18.23 14.7781 33.008 33.0078 33.008h193.9842c18.23 0 33.008-14.778 33.008-33.008v-193.9842c0-18.2297-14.778-33.0078-33.008-33.0078zm44.5264 112.328c0-1.625.7448-2.437 2.2344-2.437h21.5314c2.708 0 4.062-1.151 4.062-3.454v-15.0308c0-2.1666-1.218-3.25-3.656-3.25h-21.328c-1.3542 0-2.0313-.677-2.0313-2.0312v-30.4688c0-2.5729-1.0833-3.8593-3.25-3.8593h-22.1406c-1.8958 0-2.9114 1.151-3.0469 3.4531l-2.8437 30.875c-.1354 1.4896-.8125 2.2344-2.0313 2.2344h-14.0156c-2.4375 0-3.6562 1.0156-3.6562 3.0468v15.0308c0 2.303 1.2864 3.454 3.8593 3.454h12.3907c1.7604 0 2.6406 1.015 2.6406 3.046v56.875c0 8.667 2.7083 15.235 8.125 19.704 5.4167 4.333 12.7292 6.5 21.9375 6.5h7.9219c2.8437-.136 5.6198-.271 8.3281-.407 2.8437-.27 5.4844-.541 7.9215-.812 2.98-.677 4.469-2.302 4.469-4.875l.203-12.391c0-.948-.271-1.76-.812-2.437-.542-.677-1.287-1.016-2.235-1.016h-10.9684c-4.7396 0-8.1927-.948-10.3594-2.844-2.1666-2.031-3.25-5.349-3.25-9.953zm129.7238 112.735c3.656 0 5.484-1.49 5.484-4.469v-14.828c0-2.167-1.015-3.25-3.046-3.25h-84.704c-2.031 0-3.046 1.218-3.046 3.656v15.031c0 1.354.27 2.302.812 2.844.677.677 1.761 1.016 3.25 1.016z" fill-rule="evenodd"/>
    <style>
        path { fill: #000; }
        @media (prefers-color-scheme: dark) {
            path { fill: #FFF; }
        }
    </style>
</svg>
